<?xml version="1.0" encoding="utf-8"?>
<!-- Generator: Adobe Illustrator 22.0.1, SVG Export Plug-In . SVG Version: 6.00 Build 0)  -->
<svg version="1.1" id="Layer_1" xmlns="http://www.w3.org/2000/svg" xmlns:xlink="http://www.w3.org/1999/xlink" x="0px" y="0px"
	 viewBox="0 0 69.1 69.1" style="enable-background:new 0 0 69.1 69.1;" xml:space="preserve">
<style type="text/css">
	.st0{fill:#C44628;}
</style>
<path class="st0" d="M68.9,36.8c-0.8-0.1-1.5,0.3-2.2,0.5c-1.1,0.3-2.3,0.6-3.4,0.8c-2.2,0.3-11.2,0.5-12.1-1.4
	c-0.1-0.3-0.2-0.5-0.2-0.8c0,0,0-0.1,0-0.2l0.1-0.2c1-3.2,5.1-3.3,7.6-4.6c2.7-1.4,5.3-3.3,6.9-5.7c0.4-0.7,1.2-1.6,1.2-2.5
	c-0.1,0-0.2,0-0.2,0c-0.7,0.2-1.2,0.9-1.8,1.4c-0.9,0.7-1.8,1.4-2.8,2.1c-1.8,1.2-9.9,4.9-11.4,3.6c-0.3-0.2-0.4-0.5-0.5-0.8
	c0,0-0.1-0.1-0.1-0.2l0-0.2c-0.3-3.3,3.4-5.1,5.2-7.4c1.9-2.4,3.6-5.2,4.2-8.1c0.1-0.8,0.5-2,0.1-2.8c-0.1,0-0.1,0.1-0.2,0.1
	c-0.6,0.5-0.8,1.3-1.1,2c-0.5,1-1.1,2.1-1.7,3.1c-1.2,1.8-7.1,8.6-9.1,8c-0.3-0.1-0.7-0.3-0.9-0.5c0,0-0.1-0.1-0.2-0.2L46,22.6
	c-1.7-2.9,0.9-6,1.6-8.8c0.7-2.9,1.1-6.1,0.3-9c-0.2-0.8-0.4-2-1.1-2.6c0,0.1-0.1,0.1-0.1,0.2c-0.3,0.7-0.1,1.5-0.1,2.2
	c0,1.1-0.1,2.3-0.3,3.5c-0.3,2.1-2.8,10.7-4.8,11c-0.3,0-0.6,0-0.9-0.1c0,0-0.1-0.1-0.2-0.1l-0.2-0.1c-2.7-1.9-1.7-5.8-2.1-8.6
	c-0.5-3-1.5-6-3.4-8.3c-0.5-0.6-1.2-1.7-2.1-1.9c0,0.1,0,0.2,0,0.2c0,0.8,0.5,1.4,0.8,2.1c0.4,1,0.8,2.2,1.2,3.3
	c0.6,2.1,1.8,10.9,0,12c-0.3,0.2-0.6,0.3-0.9,0.3c0,0-0.2,0-0.2,0l-0.2,0c-3.3-0.7-3.9-4.7-5.5-7.1c-1.7-2.5-3.9-5-6.5-6.4
	c-0.7-0.4-1.8-1.1-2.7-1c0,0.1,0,0.2,0.1,0.2c0.3,0.7,1,1.1,1.6,1.6C21,6.1,21.8,7,22.5,7.8c1.4,1.7,6.1,9.5,4.9,11.2
	c-0.2,0.3-0.4,0.5-0.7,0.6l-0.2,0.1c-3.3,0.7-5.4-2.7-7.8-4.2c-2.5-1.6-5.5-2.9-8.4-3.1c-0.8-0.1-2-0.2-2.8,0.3
	c0,0.1,0.1,0.1,0.1,0.2c0.6,0.5,1.4,0.6,2.1,0.8c1.1,0.4,2.2,0.8,3.2,1.3c1.9,1,9.3,6,8.9,8c-0.1,0.3-0.2,0.6-0.4,0.9
	c0,0-0.1,0.1-0.1,0.2l-0.2,0.2c-2.7,1.9-6.1-0.3-9-0.7C9.1,23.1,5.8,23,3,24c-0.8,0.3-2,0.6-2.5,1.3c0.1,0,0.1,0.1,0.2,0.1
	c0.7,0.3,1.5,0,2.3-0.1c1.1-0.1,2.3-0.1,3.5-0.1c2.2,0.1,11.1,1.9,11.6,3.9c0.1,0.3,0.1,0.6,0,0.9L18,30.4c-1.6,2.9-5.6,2.2-8.4,3
	c-2.9,0.8-5.8,2.1-8,4.2c-0.6,0.6-1.6,1.4-1.7,2.3c0.1,0,0.2,0,0.2,0c0.8-0.1,1.4-0.6,2-1c1-0.5,2.1-1.1,3.1-1.5
	c2-0.8,10.7-2.9,11.9-1.2c0.2,0.3,0.3,0.6,0.4,0.8c0,0,0,0.1,0,0.2l0,0.2c-0.4,3.3-4.3,4.3-6.5,6.2c-2.3,1.9-4.6,4.3-5.7,7.1
	c-0.3,0.7-0.9,1.9-0.7,2.8c0.1,0,0.2-0.1,0.2-0.1c0.7-0.4,1-1.2,1.5-1.7C7.2,50.7,8,49.8,8.8,49c1.5-1.5,8.8-7,10.6-6
	c0.3,0.2,0.5,0.4,0.7,0.6l0,0l0.1,0.2c1.1,3.2-2.1,5.7-3.4,8.2c-1.3,2.7-2.3,5.8-2.2,8.7c0,0.8,0,2.1,0.5,2.8
	c0.1-0.1,0.1-0.1,0.2-0.2c0.5-0.6,0.5-1.5,0.6-2.2c0.3-1.1,0.6-2.2,1-3.3c0.8-2,5-9.8,7.1-9.7c0.3,0,0.6,0.1,0.9,0.3
	c0,0,0.1,0.1,0.2,0.1l0.2,0.1c2.2,2.5,0.3,6.1,0.2,9c-0.2,3,0.2,6.3,1.4,9c0.3,0.7,0.8,1.9,1.6,2.3c0-0.1,0.1-0.2,0.1-0.2
	c0.2-0.8-0.2-1.5-0.3-2.2c-0.2-1.1-0.3-2.3-0.4-3.5c-0.1-2.2,0.8-11.2,2.7-11.9c0.3-0.1,0.6-0.1,0.9-0.1l0.1,0l0.2,0.1
	c3.1,1.3,2.8,5.4,3.8,8c1.1,2.8,2.7,5.6,5,7.5c0.6,0.5,1.5,1.4,2.4,1.4c0-0.1,0-0.2,0-0.2c-0.2-0.8-0.8-1.3-1.2-1.9
	c-0.6-0.9-1.3-1.9-1.8-3c-1-1.9-3.9-10.3-2.4-11.8c0.2-0.2,0.5-0.4,0.8-0.5c0,0,0.1,0,0.2-0.1l0.2,0c3.4,0,4.8,3.9,6.8,5.9
	c2.1,2.1,4.8,4.1,7.6,4.9c0.8,0.2,2,0.7,2.8,0.4c0-0.1-0.1-0.1-0.1-0.2c-0.4-0.6-1.2-0.9-1.9-1.3c-1-0.6-2-1.3-2.9-2
	c-1.7-1.4-7.8-8.1-7-10c0.1-0.3,0.3-0.6,0.6-0.7l0.2-0.1c3-1.4,5.9,1.5,8.5,2.5c2.8,1.1,6,1.8,8.9,1.3c0.8-0.1,2.1-0.2,2.7-0.8
	c-0.1,0-0.1-0.1-0.2-0.2c-0.7-0.4-1.5-0.3-2.2-0.4c-1.1-0.2-2.3-0.4-3.4-0.7c-2.1-0.5-10.3-4-10.4-6.1c0-0.3,0.1-0.6,0.2-0.9
	c0,0,0.1-0.1,0.1-0.2l0.1-0.2c2.3-2.5,6.1-0.9,8.9-1.1c3-0.2,6.2-0.8,8.8-2.3c0.7-0.4,1.8-1,2.2-1.8C69,36.8,69,36.8,68.9,36.8z
	 M46.6,29c0.1-0.3,0.4-0.6,0.7-0.7c0.2-0.1,0.4-0.1,0.6-0.1c0.6,0,1.1,0.3,1.3,0.8c0.1,0.3,0.1,0.7,0,1c-0.1,0.3-0.4,0.6-0.7,0.7
	c-0.2,0.1-0.4,0.1-0.6,0.1c-0.5,0-1.1-0.3-1.3-0.8c-0.1-0.2-0.1-0.3-0.1-0.4C46.5,29.4,46.5,29.2,46.6,29z M46.5,36.3l0,0.1
	c0,0.2-0.2,0.3-0.4,0.2l-0.1,0L41,35.4l-0.2,0c-0.3-0.1-0.4-0.3-0.4-0.5c0-1.2-0.1-2-0.7-3c-0.1-0.2-0.1-0.5,0.1-0.7L40,31l4.1-3.2
	l0,0c0.1-0.1,0.4-0.1,0.5,0.1l0.1,0.1C46.5,30.8,47,32.8,46.5,36.3z M43.7,23.5L43.7,23.5c0.3-0.3,0.6-0.4,1-0.4
	c0.4,0,0.8,0.1,1.1,0.4c0.2,0.3,0.4,0.6,0.4,0.9c0,0.4-0.1,0.7-0.4,0.9c-0.3,0.3-0.6,0.4-1,0.4c-0.4,0-0.8-0.1-1-0.4
	c-0.2-0.3-0.4-0.6-0.4-0.9C43.3,24.1,43.4,23.8,43.7,23.5z M38.3,20.6L38.3,20.6c0.2-0.4,0.5-0.7,0.9-0.8c0.3-0.1,0.6-0.1,0.9,0
	c0.3,0.1,0.6,0.4,0.7,0.7c0.1,0.3,0.1,0.7,0,1c-0.1,0.3-0.4,0.6-0.7,0.7c-0.2,0.1-0.3,0.1-0.5,0.1c-0.2,0-0.4,0-0.6-0.1
	c-0.3-0.1-0.6-0.4-0.7-0.7C38.2,21.3,38.2,21,38.3,20.6z M41.9,24.9l0.1,0.1c0.1,0.1,0.1,0.3,0,0.5l0,0l-3.6,3.8l-0.1,0.1
	c-0.2,0.2-0.5,0.2-0.7,0.1c-1-0.6-1.8-0.9-3-0.9c-0.2,0-0.5-0.2-0.5-0.4l0-0.2l-0.7-5.1l0-0.1c0-0.2,0.1-0.4,0.3-0.4l0.2,0
	C37.2,22.2,39.2,22.8,41.9,24.9z M32.3,20.1c0-0.3,0.1-0.6,0.3-0.9c0.1-0.1,0.3-0.2,0.5-0.3c0.2-0.1,0.3-0.1,0.5-0.1
	c0.4,0,0.7,0.1,0.9,0.3c0.3,0.2,0.4,0.6,0.4,0.9c0,0.3-0.1,0.7-0.3,0.9c-0.2,0.2-0.4,0.3-0.6,0.3c-0.1,0.1-0.3,0.1-0.4,0.1
	c-0.3,0-0.7-0.1-0.9-0.3C32.4,20.8,32.3,20.5,32.3,20.1L32.3,20.1z M26.5,21.2c0.1-0.3,0.3-0.6,0.7-0.7c0,0,0,0,0,0c0,0,0,0,0,0
	c0.3-0.2,0.7-0.2,1-0.1c0.3,0.1,0.6,0.3,0.8,0.7c0.2,0.3,0.2,0.7,0.1,1c-0.1,0.3-0.4,0.6-0.7,0.8c0,0,0,0-0.1,0c0,0,0,0,0,0
	c-0.6,0.3-1.4,0-1.7-0.6c-0.1-0.2-0.1-0.4-0.1-0.6C26.4,21.4,26.4,21.3,26.5,21.2L26.5,21.2z M29.8,23.2l0.1-0.1
	c0.2-0.1,0.4,0,0.4,0.2l0,0.1l1.5,5l0,0.2c0.1,0.3-0.1,0.5-0.3,0.6c-1.1,0.6-1.7,1.1-2.3,2.1c-0.1,0.2-0.4,0.3-0.7,0.2l-0.1-0.1
	l-4.8-2l-0.1,0c-0.2-0.1-0.3-0.3-0.2-0.5l0.1-0.1C25.1,26,26.5,24.5,29.8,23.2z M21.7,25.3c0-0.3,0.1-0.6,0.3-0.8c0,0,0,0,0,0
	c0,0,0,0,0,0c0,0,0,0,0,0c0.1-0.1,0.2-0.2,0.3-0.3c0.2-0.1,0.3-0.1,0.5-0.2c0.3,0,0.7,0.1,1,0.3c0.3,0.2,0.4,0.5,0.5,0.9
	c0,0.3-0.1,0.7-0.3,1c-0.2,0.3-0.6,0.4-0.9,0.5c-0.3,0-0.7-0.1-1-0.3C21.9,26.1,21.7,25.8,21.7,25.3C21.7,25.4,21.7,25.3,21.7,25.3z
	 M18.9,30.6L18.9,30.6L18.9,30.6l0-0.3l0,0c0,0,0,0,0,0l0,0c0.1-0.3,0.3-0.6,0.6-0.8c0.2-0.1,0.3-0.1,0.5-0.2c0,0,0,0,0.1,0
	c0.1,0,0.3,0,0.4,0c0,0,0,0,0,0c0,0,0,0,0,0c0.3,0.1,0.6,0.3,0.8,0.6c0.2,0.3,0.2,0.7,0.1,1c-0.2,0.7-0.9,1.1-1.6,0.9
	c-0.3-0.1-0.6-0.3-0.8-0.6C18.9,31.1,18.9,30.9,18.9,30.6L18.9,30.6z M20,38L20,38c-0.3,0-0.7,0-1-0.2c-0.3-0.2-0.5-0.5-0.5-0.9
	c0-0.1,0-0.3,0-0.4c0-0.2,0.1-0.4,0.2-0.6c0.2-0.3,0.5-0.5,0.9-0.5c0.5-0.1,1,0.2,1.3,0.6c0.1,0.1,0.2,0.3,0.2,0.5c0,0,0,0,0,0
	l0,0.1c0,0,0,0,0,0v0c0,0.3-0.1,0.6-0.3,0.8C20.6,37.7,20.3,37.9,20,38z M23.2,42.6L23.2,42.6C23.2,42.6,23.2,42.6,23.2,42.6
	c-0.1,0.3-0.3,0.6-0.6,0.8c-0.3,0.2-0.6,0.2-1,0.2c-0.3-0.1-0.6-0.3-0.8-0.6c-0.1-0.2-0.2-0.3-0.2-0.5c0-0.2,0-0.4,0-0.5
	c0.1-0.3,0.3-0.6,0.6-0.8c0.6-0.4,1.4-0.2,1.8,0.4c0,0,0,0,0,0c0,0,0,0,0,0c0.1,0.2,0.2,0.4,0.2,0.7C23.2,42.5,23.2,42.6,23.2,42.6
	L23.2,42.6z M24.6,41.4c-0.1,0.1-0.4,0.1-0.5-0.1l-0.1-0.1c-1.8-2.8-2.3-4.8-1.8-8.3l0-0.1c0-0.2,0.2-0.3,0.4-0.2l0.1,0l5.1,1.2
	l0.2,0c0.3,0.1,0.4,0.3,0.4,0.5c0,1.2,0.1,2,0.7,3c0.1,0.2,0.1,0.5-0.1,0.7l-0.1,0.1L24.6,41.4L24.6,41.4z M27.4,46.7
	c0,0.3-0.1,0.5-0.2,0.7c-0.2,0.3-0.5,0.5-0.8,0.6c-0.3,0.1-0.7,0-1-0.2c-0.2-0.1-0.3-0.2-0.4-0.4c-0.1-0.1-0.2-0.3-0.2-0.5
	c-0.1-0.3,0-0.7,0.2-1c0.4-0.6,1.2-0.8,1.8-0.4c0.1,0.1,0.3,0.2,0.4,0.4c0.1,0.2,0.2,0.3,0.3,0.5c0,0,0,0,0,0L27.4,46.7L27.4,46.7z
	 M33.1,49l0,0.2v0l0,0c-0.1,0.7-0.8,1.2-1.5,1.1c-0.2,0-0.4-0.1-0.6-0.3c-0.1-0.1-0.3-0.2-0.4-0.4c-0.2-0.3-0.3-0.6-0.2-1
	c0.1-0.3,0.2-0.6,0.5-0.8c0.3-0.2,0.6-0.3,1-0.2c0.2,0,0.4,0.1,0.5,0.2c0.2,0.1,0.3,0.2,0.4,0.4C33,48.4,33.1,48.7,33.1,49L33.1,49z
	 M35.1,46.8l-0.1,0c-3.3,0.1-5.3-0.4-8.1-2.6l-0.1-0.1c-0.1-0.1-0.1-0.3,0-0.5l0,0l3.6-3.8l0.1-0.1c0.2-0.2,0.5-0.2,0.7-0.1
	c1,0.6,1.8,0.9,3,0.9c0.3,0,0.5,0.2,0.5,0.4l0,0.2l0.7,5.1l0,0.1C35.4,46.6,35.2,46.8,35.1,46.8z M34.4,37c-1.3,0-2.4-1.1-2.4-2.4
	c0-1.3,1.1-2.4,2.4-2.4c1.3,0,2.4,1.1,2.4,2.4C36.8,35.9,35.7,37,34.4,37z M39.1,48.7c0,0.2-0.1,0.5-0.2,0.7
	c-0.2,0.3-0.5,0.5-0.8,0.6c-0.4,0.1-0.7,0-1-0.2c-0.3-0.2-0.6-0.4-0.7-0.8c-0.1-0.3,0-0.7,0.1-1c0.2-0.3,0.5-0.5,0.8-0.6
	c0.3-0.1,0.7,0,1,0.1c0,0,0,0,0,0c0,0,0.1,0,0.1,0c0.3,0.2,0.5,0.5,0.6,0.8l0,0l0,0l0,0.1l0,0L39.1,48.7L39.1,48.7z M44.6,46.2
	C44.6,46.2,44.6,46.2,44.6,46.2L44.6,46.2C44.6,46.2,44.6,46.2,44.6,46.2c0,0.4-0.2,0.7-0.5,0.9c-0.3,0.2-0.6,0.3-1,0.3
	c-0.2,0-0.4-0.1-0.5-0.2c-0.2-0.1-0.4-0.2-0.5-0.4c-0.2-0.3-0.3-0.6-0.3-1c0-0.3,0.2-0.7,0.5-0.9c0.4-0.3,1-0.4,1.4-0.1
	c0.2,0.1,0.4,0.2,0.6,0.4C44.5,45.5,44.6,45.7,44.6,46.2C44.6,46.1,44.6,46.2,44.6,46.2z M45.3,40.1l-0.1,0.1
	c-1.5,2.9-3,4.4-6.3,5.7L38.9,46c-0.2,0.1-0.4,0-0.4-0.2l0-0.1l-1.5-5l0-0.1c-0.1-0.3,0-0.5,0.3-0.6c1-0.6,1.7-1.1,2.3-2.1
	c0.1-0.2,0.4-0.3,0.6-0.2l0.2,0.1l4.8,2l0.1,0C45.3,39.7,45.4,40,45.3,40.1z M48.5,41.4c0,0.2-0.1,0.4-0.2,0.6
	c-0.3,0.5-0.9,0.8-1.4,0.6c-0.2,0-0.3-0.1-0.5-0.1c-0.3-0.2-0.5-0.4-0.6-0.8c-0.1-0.3-0.1-0.7,0.1-1c0.3-0.5,0.9-0.8,1.4-0.6
	c0.2,0,0.4,0,0.5,0.1c0.3,0.2,0.5,0.4,0.6,0.8l0,0c0,0,0,0,0,0L48.5,41.4L48.5,41.4z M50.2,35.7L50.2,35.7c0,0.4-0.2,0.7-0.5,0.9
	c-0.3,0.2-0.6,0.3-0.9,0.3c0,0-0.1,0-0.1,0c0,0,0,0-0.1,0c-0.3,0-0.7-0.2-0.9-0.4c-0.2-0.3-0.3-0.6-0.3-0.9c0-0.7,0.7-1.3,1.4-1.2
	c0,0,0.1,0,0.1,0c0,0,0.1,0,0.1,0c0.4,0,0.7,0.2,0.9,0.4C50,35,50.2,35.3,50.2,35.7L50.2,35.7z"/>
</svg>
