<?xml version="1.0" encoding="utf-8"?>
<!-- Generator: Adobe Illustrator 22.0.1, SVG Export Plug-In . SVG Version: 6.00 Build 0)  -->
<svg version="1.1" id="Layer_1" xmlns="http://www.w3.org/2000/svg" xmlns:xlink="http://www.w3.org/1999/xlink" x="0px" y="0px"
	 viewBox="0 0 90 90" style="enable-background:new 0 0 90 90;" xml:space="preserve">
<style type="text/css">
	.st0{fill:#FFFFFF;}
</style>
<path class="st0" d="M85.7,47.1c-2.4,0-4.3,1.9-4.3,4.3v30.2h-73v-73h31.2c2.4,0,4.3-1.9,4.3-4.3S42.1,0,39.8,0H4.3
	C1.9,0,0,1.9,0,4.3v81.5C0,88.1,1.9,90,4.3,90h81.5c2.4,0,4.3-1.9,4.3-4.3V51.3C90,49,88.1,47.1,85.7,47.1z M59.8,8.5h15.6
	L39.1,44.8c-1.7,1.7-1.7,4.4,0,6c0.8,0.8,1.9,1.2,3,1.2c1.1,0,2.2-0.4,3-1.2l36.3-36.3v15.6c0,2.4,1.9,4.3,4.3,4.3
	c2.4,0,4.3-1.9,4.3-4.3V4.3c0-0.3,0-0.6-0.1-0.9c0-0.1-0.1-0.3-0.1-0.4c-0.2-0.6-0.6-1.2-1.1-1.7C88.6,1.1,88.5,1,88.4,1
	c-0.1-0.1-0.2-0.2-0.4-0.3c-0.1-0.1-0.2-0.1-0.4-0.2c-0.1-0.1-0.2-0.1-0.3-0.1c-0.1-0.1-0.3-0.1-0.4-0.1c-0.1,0-0.3-0.1-0.4-0.1
	C86.3,0,86,0,85.7,0H59.8c-2.4,0-4.3,1.9-4.3,4.3S57.5,8.5,59.8,8.5z"/>
</svg>
