<?xml version="1.0" encoding="utf-8"?>
<!-- Generator: Adobe Illustrator 22.0.1, SVG Export Plug-In . SVG Version: 6.00 Build 0)  -->
<svg version="1.1" id="Layer_1" xmlns="http://www.w3.org/2000/svg" xmlns:xlink="http://www.w3.org/1999/xlink" x="0px" y="0px"
	 viewBox="0 0 37 53" style="enable-background:new 0 0 37 53;" xml:space="preserve">
<style type="text/css">
	.st0{fill:#221F1F;}
	.st1{fill:#B4210E;}
</style>
<path class="st0" d="M18.5,0.1C8.4,0.1,0.2,8.3,0.2,18.4s18.3,34.5,18.3,34.5s18.3-24.4,18.3-34.5S28.6,0.1,18.5,0.1z M18.5,26.5
	c-5.1,0-9.2-4.1-9.2-9.2c0-5.1,4.1-9.2,9.2-9.2s9.2,4.1,9.2,9.2C27.7,22.4,23.6,26.5,18.5,26.5z"/>
<path class="st1" d="M18.5,0.1C8.4,0.1,0.2,8.3,0.2,18.4s18.3,34.5,18.3,34.5s18.3-24.4,18.3-34.5S28.6,0.1,18.5,0.1z M18.5,26.5
	c-5.1,0-9.2-4.1-9.2-9.2c0-5.1,4.1-9.2,9.2-9.2s9.2,4.1,9.2,9.2C27.7,22.4,23.6,26.5,18.5,26.5z"/>
</svg>
